<svg xmlns="http://www.w3.org/2000/svg" xmlns:xlink="http://www.w3.org/1999/xlink" preserveAspectRatio="xMidYMid" width="213.938" height="88.94" viewBox="0 0 213.938 88.94">
  <defs>
    <style>
      .cls-1 {
        fill: #fff;
        fill-rule: evenodd;
      }
    </style>
  </defs>
  <path d="M26.858,60.587 L26.858,60.571 C26.798,60.589 26.739,60.611 26.675,60.611 L2.773,60.633 L2.772,60.633 C2.583,60.633 2.402,60.552 2.276,60.411 C2.151,60.268 2.092,60.081 2.115,59.892 L2.371,57.802 C2.411,57.480 2.678,57.234 3.003,57.221 L20.851,56.547 L20.851,51.110 L0.478,51.110 C0.264,51.110 0.074,50.974 0.005,50.771 C-0.064,50.568 0.004,50.344 0.175,50.215 C0.513,49.957 1.064,49.664 1.827,49.257 C5.473,47.318 14.012,42.778 18.965,30.615 C25.253,15.177 22.780,0.734 22.755,0.590 C22.711,0.343 22.857,0.101 23.096,0.026 C23.335,-0.051 23.593,0.064 23.699,0.292 C23.750,0.402 28.838,11.386 31.696,20.599 C34.491,29.605 34.093,37.561 33.104,43.047 C35.820,41.537 40.636,38.374 43.565,31.183 C47.739,20.934 46.098,11.353 46.081,11.257 C46.037,11.010 46.183,10.769 46.422,10.693 C46.660,10.617 46.919,10.732 47.026,10.959 C47.060,11.032 50.456,18.366 52.365,24.517 C55.879,35.842 51.987,44.428 51.820,44.788 C51.738,44.964 51.561,45.077 51.367,45.077 L45.809,45.077 L45.809,47.919 L50.542,47.741 C50.800,47.738 51.046,47.875 51.161,48.110 C51.276,48.345 51.242,48.626 51.074,48.826 L49.365,50.866 C49.239,51.015 49.053,51.102 48.858,51.102 L32.922,51.117 L32.922,51.117 C32.732,51.117 32.552,51.035 32.426,50.893 C32.301,50.752 32.242,50.562 32.266,50.373 L32.439,48.980 C32.478,48.658 32.746,48.413 33.070,48.401 L44.810,47.957 L44.810,45.077 L32.688,45.077 C31.870,48.656 30.914,50.770 30.890,50.822 C30.808,50.997 30.631,51.110 30.437,51.110 L21.850,51.110 L21.850,56.509 L29.212,56.231 C29.466,56.234 29.716,56.365 29.831,56.600 C29.946,56.835 29.912,57.116 29.744,57.316 L27.840,59.589 L213.938,59.589 L213.938,60.587 L26.858,60.587 ZM211.120,41.395 C211.120,39.945 211.065,38.911 210.958,38.322 C210.834,37.814 210.635,37.392 210.371,37.097 C209.775,36.505 209.241,36.664 208.652,37.300 C208.277,37.725 207.970,38.335 207.747,39.105 C207.498,39.944 207.372,41.122 207.372,42.610 L207.372,51.270 L204.734,51.270 L204.734,34.515 L207.372,34.515 L207.372,35.649 C207.405,35.603 207.439,35.560 207.472,35.519 C207.849,35.038 208.255,34.680 208.673,34.459 C209.052,34.204 209.535,34.063 210.065,34.063 C210.805,34.063 211.474,34.311 212.055,34.802 C212.587,35.228 213.021,35.901 213.334,36.798 C213.481,37.237 213.585,37.769 213.657,38.434 C213.724,39.074 213.758,39.851 213.758,40.746 L213.758,51.270 L211.120,51.270 L211.120,41.395 ZM197.688,51.693 C196.233,51.693 194.989,50.913 193.991,49.375 C193.038,47.927 192.554,45.745 192.554,42.892 C192.554,40.060 193.037,37.870 193.990,36.382 C194.989,34.842 196.233,34.063 197.688,34.063 C199.124,34.063 200.358,34.842 201.357,36.380 C202.311,37.869 202.794,40.059 202.794,42.892 C202.794,45.744 202.311,47.926 201.357,49.376 C200.358,50.913 199.124,51.693 197.688,51.693 ZM199.381,38.128 L199.375,38.115 C198.712,36.529 197.941,36.529 197.688,36.529 C197.435,36.529 196.664,36.529 196.001,38.115 C195.482,39.313 195.220,40.919 195.220,42.892 C195.220,44.866 195.482,46.471 195.999,47.663 C196.664,49.254 197.435,49.254 197.688,49.254 C197.941,49.254 198.712,49.254 199.375,47.670 C199.895,46.521 200.155,44.919 200.155,42.892 C200.155,40.866 199.895,39.262 199.381,38.128 ZM189.719,51.693 C188.998,51.693 188.338,51.445 187.757,50.953 C187.199,50.505 186.773,49.814 186.500,48.909 C186.239,48.108 186.111,46.811 186.111,44.953 L186.111,36.869 L184.387,36.869 L184.387,34.515 L186.111,34.515 L186.111,31.380 L188.748,30.698 L188.748,34.515 L191.603,34.515 L191.603,36.840 L188.720,36.840 L188.720,44.417 C188.720,45.179 188.735,45.840 188.762,46.396 C188.789,46.926 188.836,47.332 188.903,47.600 C189.062,48.253 189.251,48.533 189.381,48.653 C189.583,48.857 189.803,48.945 190.086,48.945 C190.209,48.945 190.537,48.898 191.346,48.583 L192.027,48.318 L192.027,51.122 L191.695,51.240 C190.843,51.545 190.196,51.693 189.719,51.693 ZM182.516,51.907 C182.405,53.011 182.241,53.818 182.015,54.375 C181.547,55.473 180.963,56.299 180.278,56.837 C179.528,57.416 178.675,57.708 177.737,57.708 C176.873,57.708 176.075,57.528 175.366,57.174 C174.620,56.813 174.062,56.306 173.711,55.670 C173.356,55.108 173.169,54.449 173.169,53.735 L173.169,53.067 L175.665,53.067 L175.665,53.764 C175.665,54.253 175.838,54.636 176.193,54.935 C176.563,55.256 177.038,55.410 177.652,55.410 C178.116,55.410 178.499,55.275 178.824,54.995 C179.150,54.715 179.434,54.229 179.666,53.546 C179.902,52.840 180.026,51.570 180.035,49.773 C179.894,49.970 179.746,50.147 179.588,50.304 C178.947,50.945 178.191,51.270 177.341,51.270 C175.976,51.270 174.856,50.437 174.014,48.796 C173.227,47.223 172.829,45.191 172.829,42.750 C172.829,41.135 173.006,39.640 173.354,38.305 C173.713,36.950 174.227,35.901 174.882,35.185 C175.631,34.435 176.482,34.063 177.426,34.063 C178.143,34.063 178.799,34.300 179.379,34.766 C179.599,34.928 179.819,35.156 180.035,35.454 L180.035,34.515 L182.674,34.515 L182.674,47.890 C182.674,49.498 182.621,50.850 182.516,51.906 L182.516,51.907 ZM179.321,38.024 C178.984,37.340 178.451,36.529 177.822,36.529 C177.595,36.529 176.903,36.529 176.243,38.012 C175.999,38.571 175.811,39.248 175.687,40.020 C175.560,40.811 175.495,41.739 175.495,42.779 C175.495,44.073 175.605,45.224 175.823,46.200 C175.996,47.099 176.289,47.779 176.697,48.236 C177.680,49.384 178.663,48.943 179.334,47.203 C179.586,46.574 179.775,45.859 179.900,45.072 C180.028,44.272 180.092,43.357 180.092,42.356 C180.092,40.595 179.833,39.138 179.321,38.024 ZM168.279,41.395 C168.279,39.945 168.224,38.911 168.117,38.322 C167.993,37.814 167.794,37.392 167.530,37.097 C166.934,36.505 166.400,36.664 165.811,37.300 C165.436,37.725 165.129,38.335 164.907,39.105 C164.657,39.944 164.531,41.122 164.531,42.610 L164.531,51.270 L161.893,51.270 L161.893,34.515 L164.531,34.515 L164.531,35.649 C164.564,35.603 164.598,35.560 164.631,35.519 C165.008,35.038 165.414,34.680 165.833,34.459 C166.211,34.204 166.694,34.063 167.225,34.063 C167.964,34.063 168.633,34.311 169.215,34.802 C169.746,35.228 170.181,35.901 170.494,36.798 C170.640,37.237 170.744,37.769 170.816,38.434 C170.883,39.074 170.917,39.851 170.917,40.746 L170.917,51.270 L168.279,51.270 L168.279,41.395 ZM157.202,34.515 L159.840,34.515 L159.840,51.270 L157.202,51.270 L157.202,34.515 ZM157.202,28.500 L159.840,28.500 L159.840,31.306 L157.202,31.306 L157.202,28.500 ZM153.076,41.395 C153.076,39.945 153.021,38.911 152.914,38.322 C152.805,37.821 152.613,37.400 152.347,37.088 C151.793,36.541 151.222,36.637 150.608,37.300 C150.233,37.725 149.926,38.335 149.703,39.105 C149.454,39.944 149.328,41.122 149.328,42.610 L149.328,51.270 L146.690,51.270 L146.690,28.020 L149.328,28.020 L149.328,35.649 C149.361,35.603 149.395,35.560 149.428,35.519 C149.805,35.038 150.211,34.680 150.629,34.459 C151.008,34.205 151.490,34.063 152.021,34.063 C152.761,34.063 153.430,34.311 154.011,34.802 C154.543,35.228 154.977,35.901 155.290,36.798 C155.436,37.237 155.541,37.769 155.612,38.434 C155.680,39.074 155.714,39.851 155.714,40.746 L155.714,51.270 L153.076,51.270 L153.076,41.395 ZM140.576,51.693 C140.146,51.693 139.742,51.651 139.377,51.568 C138.989,51.478 138.636,51.331 138.327,51.133 C137.762,50.820 137.278,50.306 136.914,49.621 C136.741,49.299 136.606,48.918 136.514,48.490 C136.421,48.071 136.374,47.641 136.374,47.212 L136.374,46.704 L138.871,46.751 L138.871,47.240 C138.871,47.554 138.909,47.858 138.983,48.146 C139.053,48.421 139.149,48.650 139.268,48.827 C139.493,49.127 139.898,49.282 140.491,49.282 C141.019,49.282 141.416,49.049 141.739,48.551 C142.102,47.974 142.280,47.340 142.280,46.620 C142.280,45.588 141.961,44.920 141.305,44.576 L139.898,43.699 L138.835,43.202 C138.058,42.835 137.479,42.278 137.119,41.546 C136.775,40.849 136.601,40.020 136.601,39.080 C136.601,37.797 136.944,36.647 137.621,35.663 C138.336,34.602 139.397,34.063 140.774,34.063 C142.117,34.063 143.106,34.461 143.713,35.245 C144.007,35.603 144.233,36.026 144.375,36.492 C144.511,36.944 144.580,37.406 144.580,37.866 L144.580,38.383 L142.026,38.291 L142.026,37.809 C142.026,37.604 141.992,37.402 141.926,37.210 C141.870,37.046 141.791,36.920 141.685,36.827 C141.448,36.605 141.126,36.501 140.689,36.501 C140.197,36.501 139.852,36.673 139.606,37.041 C139.305,37.485 139.153,38.046 139.153,38.713 C139.153,39.198 139.241,39.583 139.416,39.857 C139.611,40.175 139.933,40.446 140.375,40.667 L141.737,41.448 C142.113,41.663 142.434,41.836 142.692,41.965 C142.992,42.115 143.189,42.231 143.315,42.331 C143.506,42.479 143.720,42.682 143.966,42.949 C144.145,43.126 144.303,43.356 144.421,43.617 C144.522,43.840 144.614,44.072 144.695,44.314 C144.846,44.830 144.919,45.427 144.919,46.111 C144.919,47.633 144.558,48.941 143.847,50.000 C143.112,51.124 142.011,51.693 140.576,51.693 ZM132.261,50.874 C132.203,50.599 132.153,50.334 132.113,50.082 C131.655,50.638 131.255,51.009 130.902,51.206 C130.344,51.529 129.784,51.693 129.246,51.693 C128.313,51.693 127.505,51.257 126.843,50.397 C126.227,49.550 125.920,48.425 125.920,47.043 C125.920,45.425 126.369,44.157 127.253,43.273 C128.083,42.382 129.478,41.654 131.507,41.058 L132.024,40.908 L132.024,39.109 C132.024,37.784 131.762,37.181 131.542,36.909 C131.239,36.535 130.895,36.360 130.460,36.360 C129.935,36.360 129.569,36.522 129.304,36.869 C128.990,37.262 128.841,37.677 128.841,38.148 L128.841,38.873 L126.147,38.873 L126.147,38.177 C126.147,37.523 126.350,36.848 126.753,36.171 C127.175,35.454 127.728,34.914 128.394,34.571 C129.714,33.891 131.471,33.869 132.784,34.673 C133.462,35.110 133.944,35.671 134.227,36.346 C134.537,37.025 134.690,38.210 134.690,39.955 L134.690,47.128 C134.690,47.459 134.699,47.808 134.718,48.175 C134.719,48.559 134.741,48.943 134.786,49.346 C134.832,49.757 134.901,50.201 134.993,50.675 L135.107,51.270 L132.346,51.270 L132.261,50.874 ZM132.052,43.469 C131.342,43.813 130.741,44.138 130.274,44.431 C129.799,44.727 129.453,45.014 129.247,45.284 C128.845,45.863 128.643,46.537 128.643,47.326 C128.643,47.699 128.709,48.069 128.839,48.424 C128.931,48.741 129.069,48.947 129.274,49.088 C129.531,49.318 129.684,49.339 129.783,49.339 C130.077,49.339 130.414,49.151 130.785,48.780 C131.154,48.379 131.470,47.803 131.710,47.083 C131.937,46.386 132.052,45.498 132.052,44.445 L132.052,43.469 ZM119.748,51.270 L117.345,36.449 L114.859,51.270 L112.167,51.270 L108.942,28.867 L111.618,28.867 L113.729,43.437 L116.131,28.867 L118.705,28.867 L121.052,43.403 L123.219,28.867 L125.753,28.867 L122.441,51.270 L119.748,51.270 ZM94.521,47.636 C95.236,49.327 96.126,49.292 96.417,49.282 C97.026,49.282 97.422,49.137 97.645,48.835 C97.922,48.467 98.055,48.085 98.055,47.665 L98.055,46.600 L100.552,46.600 L100.552,47.636 C100.552,48.306 100.359,48.978 99.976,49.638 C99.595,50.315 99.071,50.836 98.423,51.182 C97.809,51.519 97.082,51.693 96.266,51.693 C94.601,51.693 93.310,50.823 92.430,49.105 C91.589,47.502 91.160,45.448 91.160,43.005 C91.160,40.486 91.608,38.374 92.491,36.727 C93.470,34.957 94.730,34.063 96.238,34.063 C97.108,34.063 97.901,34.359 98.594,34.943 C99.263,35.485 99.792,36.333 100.160,37.456 C100.537,38.527 100.722,40.003 100.722,41.960 L100.722,43.278 L93.720,43.278 C93.762,45.031 94.031,46.495 94.521,47.636 ZM98.224,41.009 C98.211,40.202 98.095,39.442 97.880,38.747 C97.673,37.991 97.403,37.448 97.072,37.118 C96.752,36.798 96.414,36.643 96.040,36.643 C95.530,36.643 95.056,37.275 94.748,37.806 C94.317,38.574 94.009,39.652 93.831,41.009 L98.224,41.009 ZM91.412,51.270 L88.193,51.270 L84.642,44.541 L84.642,51.270 L81.948,51.270 L81.948,28.020 L84.642,28.020 L84.642,40.667 L88.207,34.515 L91.254,34.515 L86.719,42.339 L91.412,51.270 ZM77.183,50.874 C77.124,50.599 77.074,50.334 77.035,50.083 C76.577,50.638 76.177,51.008 75.824,51.206 C75.265,51.529 74.705,51.693 74.167,51.693 C73.235,51.693 72.427,51.257 71.765,50.397 C71.150,49.551 70.842,48.426 70.842,47.043 C70.842,45.425 71.290,44.158 72.175,43.273 C73.004,42.382 74.400,41.654 76.428,41.058 L76.946,40.908 L76.946,39.109 C76.946,37.784 76.683,37.181 76.463,36.909 C76.160,36.535 75.817,36.360 75.383,36.360 C74.864,36.360 74.486,36.527 74.226,36.869 C73.911,37.262 73.762,37.677 73.762,38.148 L73.762,38.873 L71.067,38.873 L71.067,38.177 C71.067,37.523 71.272,36.849 71.675,36.171 C72.097,35.453 72.650,34.914 73.316,34.571 C74.633,33.892 76.392,33.870 77.706,34.673 C78.384,35.110 78.866,35.671 79.149,36.346 C79.459,37.026 79.612,38.211 79.612,39.955 L79.612,47.128 C79.612,47.459 79.621,47.808 79.640,48.175 C79.640,48.559 79.663,48.943 79.708,49.345 C79.753,49.757 79.822,50.201 79.914,50.675 L80.028,51.270 L77.267,51.270 L77.183,50.874 ZM76.974,43.470 C76.263,43.814 75.662,44.139 75.195,44.431 C74.721,44.727 74.375,45.014 74.168,45.284 C73.767,45.863 73.564,46.537 73.564,47.326 C73.564,47.699 73.630,48.068 73.760,48.425 C73.852,48.741 73.991,48.947 74.195,49.088 C74.402,49.272 74.550,49.339 74.704,49.339 C74.998,49.339 75.336,49.151 75.707,48.780 C76.075,48.379 76.392,47.803 76.633,47.083 C76.859,46.386 76.974,45.498 76.974,44.445 L76.974,43.470 ZM60.669,28.867 L63.448,28.867 L63.448,48.690 L70.598,48.690 L70.598,51.270 L60.669,51.270 L60.669,28.867 ZM72.204,84.525 C72.204,85.655 72.459,86.447 72.970,86.903 C73.480,87.340 74.164,87.558 75.021,87.558 C75.787,87.558 76.416,87.177 76.908,86.411 C77.419,85.664 77.674,84.662 77.674,83.405 C77.674,82.385 77.455,81.556 77.017,80.918 C76.580,80.299 75.914,79.661 75.021,79.006 L74.337,78.513 C73.899,78.186 73.503,77.885 73.148,77.612 C72.792,77.339 72.496,77.057 72.258,76.765 C71.821,76.218 71.483,75.580 71.247,74.852 C71.010,74.160 70.891,73.368 70.891,72.475 C70.891,70.963 71.247,69.670 71.958,68.594 C72.632,67.538 73.726,67.009 75.240,67.009 C76.589,67.009 77.555,67.337 78.139,67.993 C78.686,68.649 78.960,69.414 78.960,70.288 L78.960,70.398 L77.236,70.398 L77.236,70.261 C77.236,69.933 77.154,69.605 76.990,69.278 C76.771,68.950 76.507,68.722 76.197,68.594 C75.887,68.449 75.513,68.376 75.076,68.376 C74.219,68.376 73.589,68.740 73.189,69.468 C72.787,70.197 72.587,71.045 72.587,72.009 C72.587,72.666 72.678,73.267 72.861,73.813 C73.042,74.343 73.307,74.806 73.654,75.207 C73.836,75.389 74.064,75.604 74.337,75.849 C74.611,76.095 74.957,76.373 75.377,76.683 L76.197,77.284 C76.835,77.758 77.368,78.213 77.797,78.650 C78.225,79.088 78.549,79.543 78.768,80.017 C79.205,80.945 79.424,81.966 79.424,83.077 C79.424,84.134 79.250,85.126 78.905,86.055 C78.576,86.985 78.093,87.705 77.455,88.215 C76.854,88.706 76.033,88.953 74.994,88.953 C74.045,88.953 73.234,88.798 72.560,88.487 C71.904,88.160 71.411,87.631 71.083,86.903 C70.736,86.210 70.563,85.418 70.563,84.525 L70.563,84.389 L72.204,84.389 L72.204,84.525 ZM86.124,72.639 C86.835,72.639 87.455,72.794 87.984,73.103 C88.476,73.377 88.895,73.796 89.242,74.360 C89.551,74.888 89.707,75.471 89.707,76.109 L89.707,76.628 L88.203,76.628 L88.203,76.081 C88.203,75.553 88.038,75.080 87.710,74.660 C87.400,74.242 86.908,74.032 86.234,74.032 C85.413,74.032 84.747,74.561 84.237,75.618 C83.690,76.656 83.417,78.350 83.417,80.700 C83.417,83.050 83.690,84.753 84.237,85.810 C84.784,86.848 85.449,87.367 86.234,87.367 C86.908,87.367 87.410,87.167 87.738,86.766 C88.047,86.311 88.203,85.828 88.203,85.317 L88.203,85.154 L89.652,85.154 L89.652,85.290 C89.652,85.874 89.497,86.438 89.187,86.985 C88.859,87.568 88.449,88.005 87.957,88.297 C87.446,88.588 86.835,88.733 86.124,88.733 C84.720,88.733 83.653,88.023 82.925,86.603 C82.177,85.164 81.803,83.196 81.803,80.700 C81.803,78.186 82.177,76.209 82.925,74.771 C83.690,73.349 84.757,72.639 86.124,72.639 ZM93.589,75.699 C93.917,74.861 94.236,74.251 94.547,73.868 C94.875,73.449 95.212,73.148 95.559,72.966 C95.886,72.748 96.260,72.639 96.680,72.639 C97.281,72.639 97.819,72.839 98.293,73.240 C98.749,73.604 99.114,74.178 99.387,74.961 C99.514,75.343 99.610,75.836 99.675,76.437 C99.738,77.038 99.770,77.767 99.770,78.623 L99.770,88.324 L98.184,88.324 L98.184,79.251 C98.184,77.813 98.129,76.792 98.020,76.190 C97.892,75.607 97.673,75.135 97.363,74.771 C97.017,74.424 96.662,74.251 96.296,74.251 C95.841,74.251 95.394,74.488 94.957,74.961 C94.537,75.435 94.209,76.081 93.972,76.901 C93.716,77.758 93.589,78.933 93.589,80.426 L93.589,88.324 L92.003,88.324 L92.003,66.791 L93.589,66.791 L93.589,75.699 ZM107.072,72.639 C108.292,72.639 109.341,73.313 110.217,74.660 C111.092,76.027 111.530,78.040 111.530,80.700 C111.530,83.378 111.092,85.382 110.217,86.712 C109.341,88.060 108.292,88.733 107.072,88.733 C105.832,88.733 104.774,88.060 103.899,86.712 C103.024,85.382 102.586,83.378 102.586,80.700 C102.586,78.040 103.024,76.027 103.899,74.660 C104.774,73.313 105.832,72.639 107.072,72.639 ZM104.993,85.510 C105.503,86.730 106.197,87.340 107.072,87.340 C107.947,87.340 108.639,86.730 109.150,85.510 C109.679,84.344 109.943,82.740 109.943,80.700 C109.943,78.660 109.679,77.057 109.150,75.890 C108.639,74.670 107.947,74.059 107.072,74.059 C106.197,74.059 105.503,74.670 104.993,75.890 C104.464,77.111 104.200,78.715 104.200,80.700 C104.200,82.686 104.464,84.289 104.993,85.510 ZM118.721,72.639 C119.942,72.639 120.990,73.313 121.865,74.660 C122.740,76.027 123.179,78.040 123.179,80.700 C123.179,83.378 122.740,85.382 121.865,86.712 C120.990,88.060 119.942,88.733 118.721,88.733 C117.480,88.733 116.424,88.060 115.549,86.712 C114.673,85.382 114.236,83.378 114.236,80.700 C114.236,78.040 114.673,76.027 115.549,74.660 C116.424,73.313 117.480,72.639 118.721,72.639 ZM116.642,85.510 C117.153,86.730 117.845,87.340 118.721,87.340 C119.596,87.340 120.288,86.730 120.799,85.510 C121.328,84.344 121.593,82.740 121.593,80.700 C121.593,78.660 121.328,77.057 120.799,75.890 C120.288,74.670 119.596,74.059 118.721,74.059 C117.845,74.059 117.153,74.670 116.642,75.890 C116.114,77.111 115.849,78.715 115.849,80.700 C115.849,82.686 116.114,84.289 116.642,85.510 ZM127.635,88.324 L126.050,88.324 L126.050,66.791 L127.635,66.791 L127.635,88.324 ZM145.057,68.758 C145.475,69.122 145.840,69.596 146.150,70.179 C146.461,70.762 146.734,71.437 146.971,72.201 C147.445,73.786 147.682,75.681 147.682,77.885 C147.682,79.944 147.472,81.757 147.052,83.323 C146.633,84.872 146.004,86.092 145.166,86.985 C144.327,87.877 143.078,88.324 141.419,88.324 L137.536,88.324 L137.536,67.610 L141.173,67.610 C142.941,67.610 144.236,67.993 145.057,68.758 ZM139.259,86.684 L141.309,86.684 C142.513,86.684 143.416,86.384 144.017,85.783 C144.637,85.181 145.112,84.243 145.439,82.968 C145.767,81.693 145.932,80.081 145.932,78.132 C145.932,76.146 145.786,74.479 145.494,73.131 C145.202,71.746 144.746,70.716 144.127,70.043 C143.525,69.369 142.568,69.032 141.255,69.032 L139.259,69.032 L139.259,86.684 ZM152.002,69.005 L150.416,69.005 L150.416,67.255 L152.002,67.255 L152.002,69.005 ZM152.002,88.324 L150.416,88.324 L150.416,73.076 L152.002,73.076 L152.002,88.324 ZM156.173,85.905 C156.255,86.224 156.368,86.493 156.514,86.712 C156.843,87.149 157.371,87.367 158.101,87.367 C158.775,87.367 159.314,87.058 159.714,86.438 C160.116,85.801 160.317,85.090 160.317,84.306 C160.317,83.123 159.915,82.321 159.113,81.902 L158.319,81.438 L157.800,81.082 L156.706,80.563 C156.050,80.253 155.571,79.794 155.271,79.183 C154.969,78.573 154.819,77.849 154.819,77.010 C154.819,75.863 155.120,74.852 155.722,73.978 C156.323,73.085 157.207,72.639 158.374,72.639 C159.523,72.639 160.344,72.958 160.835,73.595 C161.091,73.904 161.277,74.256 161.396,74.647 C161.515,75.039 161.574,75.435 161.574,75.836 L160.069,75.781 C160.069,75.526 160.029,75.280 159.947,75.043 C159.865,74.806 159.742,74.616 159.578,74.469 C159.268,74.178 158.839,74.032 158.292,74.032 C157.654,74.032 157.171,74.278 156.843,74.771 C156.496,75.280 156.323,75.909 156.323,76.656 C156.323,77.220 156.433,77.676 156.651,78.022 C156.888,78.404 157.262,78.723 157.773,78.979 L158.512,79.388 L159.058,79.716 C159.442,79.935 159.759,80.108 160.015,80.235 C160.270,80.363 160.443,80.463 160.535,80.536 C160.699,80.664 160.890,80.846 161.110,81.082 C161.255,81.228 161.373,81.401 161.465,81.602 C161.555,81.802 161.638,82.011 161.711,82.231 C161.838,82.667 161.903,83.196 161.903,83.816 C161.903,85.200 161.583,86.365 160.946,87.313 C160.325,88.261 159.404,88.733 158.183,88.733 C157.800,88.733 157.449,88.697 157.130,88.624 C156.811,88.551 156.523,88.433 156.269,88.269 C155.776,87.996 155.375,87.568 155.065,86.985 C154.920,86.712 154.805,86.388 154.723,86.014 C154.642,85.641 154.600,85.263 154.600,84.881 L156.050,84.908 C156.050,85.254 156.091,85.586 156.173,85.905 ZM165.512,69.933 L167.097,69.523 L167.097,73.076 L169.860,73.076 L169.860,74.360 L167.070,74.360 L167.070,82.176 C167.070,82.923 167.084,83.569 167.111,84.116 C167.138,84.662 167.188,85.081 167.261,85.372 C167.407,85.973 167.608,86.393 167.863,86.630 C168.137,86.903 168.474,87.039 168.875,87.039 C169.148,87.039 169.614,86.912 170.270,86.657 L170.270,88.324 C169.504,88.596 168.920,88.733 168.519,88.733 C167.935,88.733 167.407,88.533 166.933,88.133 C166.459,87.750 166.104,87.167 165.866,86.384 C165.629,85.655 165.512,84.425 165.512,82.694 L165.512,74.387 L163.843,74.387 L163.843,73.076 L165.512,73.076 L165.512,69.933 ZM174.344,75.754 C174.491,75.371 174.632,75.030 174.769,74.730 C174.905,74.428 175.055,74.169 175.219,73.951 C175.366,73.731 175.521,73.545 175.684,73.390 C175.848,73.235 176.012,73.094 176.177,72.966 C176.523,72.748 176.878,72.639 177.243,72.639 C177.571,72.639 177.863,72.739 178.118,72.939 L178.118,74.606 C177.535,74.460 177.134,74.387 176.916,74.387 C176.331,74.387 175.766,74.834 175.219,75.727 C174.654,76.582 174.371,78.140 174.371,80.399 L174.371,88.324 L172.758,88.324 L172.758,73.076 L174.344,73.076 L174.344,75.754 ZM182.083,69.005 L180.498,69.005 L180.498,67.255 L182.083,67.255 L182.083,69.005 ZM182.083,88.324 L180.498,88.324 L180.498,73.076 L182.083,73.076 L182.083,88.324 ZM189.221,72.639 C189.933,72.639 190.552,72.794 191.081,73.103 C191.574,73.377 191.993,73.796 192.339,74.360 C192.650,74.888 192.805,75.471 192.805,76.109 L192.805,76.628 L191.300,76.628 L191.300,76.081 C191.300,75.553 191.137,75.080 190.808,74.660 C190.498,74.242 190.006,74.032 189.330,74.032 C188.510,74.032 187.845,74.561 187.335,75.618 C186.787,76.656 186.514,78.350 186.514,80.700 C186.514,83.050 186.787,84.753 187.335,85.810 C187.882,86.848 188.547,87.367 189.330,87.367 C190.006,87.367 190.507,87.167 190.835,86.766 C191.145,86.311 191.300,85.828 191.300,85.317 L191.300,85.154 L192.750,85.154 L192.750,85.290 C192.750,85.874 192.595,86.438 192.285,86.985 C191.957,87.568 191.546,88.005 191.054,88.297 C190.543,88.588 189.933,88.733 189.221,88.733 C187.818,88.733 186.751,88.023 186.021,86.603 C185.274,85.164 184.901,83.196 184.901,80.700 C184.901,78.186 185.274,76.209 186.021,74.771 C186.787,73.349 187.855,72.639 189.221,72.639 ZM196.168,69.933 L197.754,69.523 L197.754,73.076 L200.516,73.076 L200.516,74.360 L197.726,74.360 L197.726,82.176 C197.726,82.923 197.740,83.569 197.767,84.116 C197.795,84.662 197.845,85.081 197.918,85.372 C198.063,85.973 198.264,86.393 198.520,86.630 C198.792,86.903 199.130,87.039 199.531,87.039 C199.804,87.039 200.270,86.912 200.926,86.657 L200.926,88.324 C200.160,88.596 199.576,88.733 199.175,88.733 C198.592,88.733 198.063,88.533 197.589,88.133 C197.115,87.750 196.760,87.167 196.523,86.384 C196.285,85.655 196.168,84.425 196.168,82.694 L196.168,74.387 L194.499,74.387 L194.499,73.076 L196.168,73.076 L196.168,69.933 Z" class="cls-1"/>
</svg>
